<svg width="24" height="27" viewBox="0 0 24 27" fill="none" xmlns="http://www.w3.org/2000/svg">
<path d="M6.6665 7.66667V6.33333C6.6665 4.91885 7.22841 3.56229 8.2286 2.5621C9.22879 1.5619 10.5853 1 11.9998 1C13.4143 1 14.7709 1.5619 15.7711 2.5621C16.7713 3.56229 17.3332 4.91885 17.3332 6.33333V7.66667" stroke="#0A0D12" stroke-width="2" stroke-linecap="round"/>
<path fill-rule="evenodd" clip-rule="evenodd" d="M0.781333 7.11532C-7.94729e-08 7.89665 0 9.15265 0 11.6673V15.6673C0 20.6953 -1.58946e-07 23.21 1.56267 24.7713C3.12533 26.3327 5.63867 26.334 10.6667 26.334H13.3333C18.3613 26.334 20.876 26.334 22.4373 24.7713C23.9987 23.2087 24 20.6953 24 15.6673V11.6673C24 9.15265 24 7.89665 23.2187 7.11532C22.4373 6.33398 21.1813 6.33398 18.6667 6.33398H5.33333C2.81867 6.33398 1.56267 6.33398 0.781333 7.11532ZM9.33333 13.0007C9.33333 12.647 9.19286 12.3079 8.94281 12.0578C8.69276 11.8078 8.35362 11.6673 8 11.6673C7.64638 11.6673 7.30724 11.8078 7.05719 12.0578C6.80714 12.3079 6.66667 12.647 6.66667 13.0007V15.6673C6.66667 16.0209 6.80714 16.3601 7.05719 16.6101C7.30724 16.8602 7.64638 17.0007 8 17.0007C8.35362 17.0007 8.69276 16.8602 8.94281 16.6101C9.19286 16.3601 9.33333 16.0209 9.33333 15.6673V13.0007ZM17.3333 13.0007C17.3333 12.647 17.1929 12.3079 16.9428 12.0578C16.6928 11.8078 16.3536 11.6673 16 11.6673C15.6464 11.6673 15.3072 11.8078 15.0572 12.0578C14.8071 12.3079 14.6667 12.647 14.6667 13.0007V15.6673C14.6667 16.0209 14.8071 16.3601 15.0572 16.6101C15.3072 16.8602 15.6464 17.0007 16 17.0007C16.3536 17.0007 16.6928 16.8602 16.9428 16.6101C17.1929 16.3601 17.3333 16.0209 17.3333 15.6673V13.0007Z" fill="#0A0D12"/>
</svg>
